<?xml version="1.0" encoding="UTF-8" standalone="no"?>
<svg
   viewBox="0 0 320 360"
   height="360"
   width="320"
   version="1.1"
   id="svg240"
   sodipodi:docname="logo.svg"
   inkscape:version="1.1 (c68e22c387, 2021-05-23)"
   xmlns:inkscape="http://www.inkscape.org/namespaces/inkscape"
   xmlns:sodipodi="http://sodipodi.sourceforge.net/DTD/sodipodi-0.dtd"
   xmlns="http://www.w3.org/2000/svg"
   xmlns:svg="http://www.w3.org/2000/svg">
  <sodipodi:namedview
     id="namedview242"
     pagecolor="#ffffff"
     bordercolor="#666666"
     borderopacity="1.0"
     inkscape:pageshadow="2"
     inkscape:pageopacity="0.0"
     inkscape:pagecheckerboard="0"
     showgrid="false"
     inkscape:zoom="2.4222222"
     inkscape:cx="159.97707"
     inkscape:cy="179.79358"
     inkscape:window-width="1858"
     inkscape:window-height="1057"
     inkscape:window-x="1912"
     inkscape:window-y="-8"
     inkscape:window-maximized="1"
     inkscape:current-layer="svg240" />
  <g
     id="g199">
    <svg
       version="1.1"
       id="svg197" />
  </g>
  <g
     id="g236"
     style="fill:#6002ee;fill-opacity:1">
    <svg
       viewBox="0 0 320 360"
       height="360"
       width="320"
       version="1.1"
       id="svg234"
       style="fill:#6002ee;fill-opacity:1">
      <g
         id="g203"
         style="fill:#6002ee;fill-opacity:1">
        <path
           d="m 20.961,227.22 3.726,4.658 -1.863,-6.056 c -0.466,-2.795 -3.726,0.466 -1.863,1.398 m 4.192,-2.795 c 1.397,2.329 2.795,4.658 2.795,6.987 0,3.261 2.795,4.658 5.123,5.589 -3.261,-3.726 -5.124,-13.974 -7.918,-12.576 M 204.017,26.929 c 7.918,0 15.371,-0.932 23.756,0.931 20.495,5.124 37.729,15.371 49.374,29.811 l 32.606,52.169 c 1.397,13.042 4.192,27.482 3.726,43.319 3.261,0 2.795,-4.658 6.521,-5.59 -3.726,9.316 -5.59,20.961 -6.521,34.469 -2.329,-7.453 0,-18.632 0.466,-24.687 -3.261,5.124 -5.124,1.397 -5.124,-0.932 0.466,-3.726 -1.397,-3.261 -2.795,-4.658 -5.124,-4.658 -8.384,-9.782 -12.11,-17.7 2.329,-6.055 2.795,-14.905 -4.658,-19.563 -2.329,-1.397 -5.124,-3.726 -6.521,-7.453 -1.863,-5.124 -5.124,-11.179 -4.193,-19.097 0.466,-2.329 -6.987,5.124 -11.179,1.863 -18.166,-12.576 -36.332,-27.016 -58.224,-39.127 -11.645,0 -20.029,-4.192 -24.221,-9.316 -3.726,-4.658 -0.932,-10.713 4.658,-11.179 3.261,0 6.987,-0.932 9.782,0.932 0.466,-1.863 2.329,-4.192 4.657,-4.192 m -46.113,-10.714 0.932,0.466 c 4.658,0.932 6.987,7.453 12.11,5.124 0,3.261 0.466,6.521 -0.466,8.85 -1.397,3.726 -5.59,3.726 -8.85,3.726 C 130.422,32.518 112.256,45.56 93.159,56.739 88.035,60 82.446,62.329 78.253,66.521 58.224,85.153 36.332,102.387 31.208,136.856 l -4.192,38.195 c -0.466,4.192 -5.124,8.384 -4.192,13.508 l 3.26,22.824 c -3.261,-3.261 -5.124,0.932 -4.192,2.795 0.466,1.397 2.329,6.055 5.124,1.863 3.726,6.987 7.453,20.495 12.576,26.55 15.837,18.632 36.332,35.4 53.101,52.169 4.192,-0.932 7.453,-0.932 8.384,-3.727 1.397,2.795 -1.397,5.59 -3.726,6.056 7.453,4.658 15.837,8.85 27.016,9.781 14.44,0.932 27.948,3.261 40.524,6.522 6.521,-1.863 13.042,-2.795 20.029,-3.261 2.329,0 3.726,-3.726 6.521,-4.658 l 0.466,-4.658 c 2.795,4.192 2.329,-1.397 0.466,-4.192 3.261,2.795 4.192,5.124 5.589,6.987 0,-1.397 3.726,-6.521 3.727,-0.466 l 0.931,-6.055 c 1.397,-0.932 1.863,5.124 3.261,0.931 1.397,-4.192 4.192,-0.932 6.987,-2.329 -0.932,1.863 -0.466,5.59 2.794,3.261 l 3.727,-3.261 c 2.329,5.59 6.055,3.261 7.918,2.329 20.495,-13.042 40.99,-28.413 60.553,-43.784 l -0.466,6.055 2.329,-7.453 c 2.329,2.329 4.192,0.466 5.124,-0.931 2.795,-4.658 6.521,-9.316 12.577,-13.508 -7.453,20.029 -16.303,35.866 -27.482,48.908 l -4.658,5.59 c 0,3.261 -0.932,7.453 -4.658,7.918 -1.863,0.466 -5.59,-0.932 -8.384,1.863 -1.397,1.863 3.261,5.59 -0.466,2.795 -3.261,-2.329 -6.521,0 -10.248,0.932 -2.795,0.932 1.863,3.726 2.795,5.589 0.932,1.863 1.863,3.726 1.398,6.056 l -5.124,-5.59 c -6.055,3.261 -9.782,9.316 -14.906,13.974 -2.329,1.863 -1.397,5.124 -1.397,7.918 -3.261,0 -6.987,-0.932 -8.85,0.932 -1.397,1.863 -0.932,4.658 -0.932,7.453 -4.658,-0.466 -5.124,-7.453 -9.315,-6.056 -4.192,0.932 -8.85,1.397 -12.577,3.727 2.795,5.59 -4.658,2.329 -3.726,3.26 -6.987,-4.192 -13.042,-7.453 -20.495,-4.658 -15.837,-5.124 -35.4,-2.795 -49.84,-0.931 0,-2.329 0.466,-4.658 -0.466,-5.124 -0.932,2.329 -3.726,1.397 -3.26,1.397 -8.85,-6.055 -17.7,-9.782 -27.016,-14.905 -8.384,0.932 -16.303,-3.261 -18.632,-5.59 -6.521,-6.055 -13.974,-2.795 -20.029,-4.192 -13.042,-3.261 -17.7,-16.769 -19.098,-26.084 -0.932,-4.658 -4.658,-6.521 -6.055,-6.056 -6.055,-19.563 -15.371,-37.263 -22.824,-55.429 -1.863,-4.658 -1.397,-9.316 -1.397,-14.44 2.329,0.932 4.658,0.466 4.192,-2.794 C 11.645,189.491 6.056,177.846 0,166.667 3.261,150.83 3.726,132.198 11.179,118.224 17.7,105.648 29.811,99.126 38.195,88.413 c 2.795,-3.726 2.795,-8.85 5.59,-12.11 9.316,-9.316 18.632,-19.098 28.879,-27.482 4.658,-3.726 10.247,0 17.234,-1.397 2.329,-8.384 11.645,-15.837 20.495,-13.508 3.726,0.932 11.179,-8.85 13.508,-9.782 3.726,-1.397 1.863,3.726 1.863,6.987 8.85,-6.987 20.961,-10.713 32.14,-14.906"
           fill="#1c4b82"
           fill-rule="nonzero"
           stroke="none"
           stroke-width="1"
           stroke-linecap="butt"
           stroke-linejoin="miter"
           stroke-miterlimit="10"
           stroke-dasharray="none"
           stroke-dashoffset="0"
           font-family="none"
           font-weight="none"
           font-size="none"
           text-anchor="none"
           style="mix-blend-mode:normal;fill:#6002ee;fill-opacity:1"
           data-fill-palette-color="tertiary"
           id="path201" />
      </g>
    </svg>
  </g>
  <defs
     id="defs238" />
  <text
     xml:space="preserve"
     style="font-size:133.333px;line-height:1.25;font-family:'Segoe Print';-inkscape-font-specification:'Segoe Print';fill:#6002ee;fill-opacity:1"
     x="34.266052"
     y="218.80734"
     id="text51140"><tspan
       sodipodi:role="line"
       id="tspan51138"
       x="34.266052"
       y="218.80734">m</tspan></text>
  <text
     xml:space="preserve"
     style="font-size:40px;line-height:1.25;font-family:'Segoe Print';-inkscape-font-specification:'Segoe Print';fill:#6002ee;fill-opacity:1"
     x="180.41284"
     y="213.44038"
     id="text58074"><tspan
       sodipodi:role="line"
       id="tspan58072"
       x="180.41284"
       y="213.44038">x</tspan></text>
  <text
     xml:space="preserve"
     style="font-size:133.333px;line-height:1.25;font-family:'Segoe Print';-inkscape-font-specification:'Segoe Print';fill:#6002ee;fill-opacity:1"
     x="210.13762"
     y="214.67889"
     id="text61298"><tspan
       sodipodi:role="line"
       id="tspan61296"
       x="210.13762"
       y="214.67889">a</tspan></text>
</svg>
