<?xml version="1.0" encoding="UTF-8" standalone="no"?>
<svg
   viewBox="0 0 320 327.57013"
   height="327.57013"
   width="320"
   version="1.1"
   id="svg240"
   sodipodi:docname="logo_exported.svg"
   inkscape:version="1.1 (c68e22c387, 2021-05-23)"
   xmlns:inkscape="http://www.inkscape.org/namespaces/inkscape"
   xmlns:sodipodi="http://sodipodi.sourceforge.net/DTD/sodipodi-0.dtd"
   xmlns="http://www.w3.org/2000/svg"
   xmlns:svg="http://www.w3.org/2000/svg">
  <sodipodi:namedview
     id="namedview242"
     pagecolor="#ffffff"
     bordercolor="#666666"
     borderopacity="1.0"
     inkscape:pageshadow="2"
     inkscape:pageopacity="0.0"
     inkscape:pagecheckerboard="0"
     showgrid="false"
     inkscape:zoom="2.4222222"
     inkscape:cx="159.97707"
     inkscape:cy="163.69266"
     inkscape:window-width="1780"
     inkscape:window-height="1057"
     inkscape:window-x="132"
     inkscape:window-y="-8"
     inkscape:window-maximized="1"
     inkscape:current-layer="svg240"
     fit-margin-top="0"
     fit-margin-left="0"
     fit-margin-right="0"
     fit-margin-bottom="0" />
  <g
     id="g199"
     transform="translate(0,-16.215)">
    <svg
       version="1.1"
       id="svg197"
       width="100%"
       height="100%" />
  </g>
  <g
     id="g236"
     style="fill:#6002ee;fill-opacity:1"
     transform="translate(0,-16.215)">
    <svg
       viewBox="0 0 320 360"
       height="360"
       width="320"
       version="1.1"
       id="svg234"
       style="fill:#6002ee;fill-opacity:1">
      <g
         id="g203"
         style="fill:#6002ee;fill-opacity:1">
        <path
           d="m 20.961,227.22 3.726,4.658 -1.863,-6.056 c -0.466,-2.795 -3.726,0.466 -1.863,1.398 m 4.192,-2.795 c 1.397,2.329 2.795,4.658 2.795,6.987 0,3.261 2.795,4.658 5.123,5.589 -3.261,-3.726 -5.124,-13.974 -7.918,-12.576 M 204.017,26.929 c 7.918,0 15.371,-0.932 23.756,0.931 20.495,5.124 37.729,15.371 49.374,29.811 l 32.606,52.169 c 1.397,13.042 4.192,27.482 3.726,43.319 3.261,0 2.795,-4.658 6.521,-5.59 -3.726,9.316 -5.59,20.961 -6.521,34.469 -2.329,-7.453 0,-18.632 0.466,-24.687 -3.261,5.124 -5.124,1.397 -5.124,-0.932 0.466,-3.726 -1.397,-3.261 -2.795,-4.658 -5.124,-4.658 -8.384,-9.782 -12.11,-17.7 2.329,-6.055 2.795,-14.905 -4.658,-19.563 -2.329,-1.397 -5.124,-3.726 -6.521,-7.453 -1.863,-5.124 -5.124,-11.179 -4.193,-19.097 0.466,-2.329 -6.987,5.124 -11.179,1.863 -18.166,-12.576 -36.332,-27.016 -58.224,-39.127 -11.645,0 -20.029,-4.192 -24.221,-9.316 -3.726,-4.658 -0.932,-10.713 4.658,-11.179 3.261,0 6.987,-0.932 9.782,0.932 0.466,-1.863 2.329,-4.192 4.657,-4.192 m -46.113,-10.714 0.932,0.466 c 4.658,0.932 6.987,7.453 12.11,5.124 0,3.261 0.466,6.521 -0.466,8.85 -1.397,3.726 -5.59,3.726 -8.85,3.726 C 130.422,32.518 112.256,45.56 93.159,56.739 88.035,60 82.446,62.329 78.253,66.521 58.224,85.153 36.332,102.387 31.208,136.856 l -4.192,38.195 c -0.466,4.192 -5.124,8.384 -4.192,13.508 l 3.26,22.824 c -3.261,-3.261 -5.124,0.932 -4.192,2.795 0.466,1.397 2.329,6.055 5.124,1.863 3.726,6.987 7.453,20.495 12.576,26.55 15.837,18.632 36.332,35.4 53.101,52.169 4.192,-0.932 7.453,-0.932 8.384,-3.727 1.397,2.795 -1.397,5.59 -3.726,6.056 7.453,4.658 15.837,8.85 27.016,9.781 14.44,0.932 27.948,3.261 40.524,6.522 6.521,-1.863 13.042,-2.795 20.029,-3.261 2.329,0 3.726,-3.726 6.521,-4.658 l 0.466,-4.658 c 2.795,4.192 2.329,-1.397 0.466,-4.192 3.261,2.795 4.192,5.124 5.589,6.987 0,-1.397 3.726,-6.521 3.727,-0.466 l 0.931,-6.055 c 1.397,-0.932 1.863,5.124 3.261,0.931 1.397,-4.192 4.192,-0.932 6.987,-2.329 -0.932,1.863 -0.466,5.59 2.794,3.261 l 3.727,-3.261 c 2.329,5.59 6.055,3.261 7.918,2.329 20.495,-13.042 40.99,-28.413 60.553,-43.784 l -0.466,6.055 2.329,-7.453 c 2.329,2.329 4.192,0.466 5.124,-0.931 2.795,-4.658 6.521,-9.316 12.577,-13.508 -7.453,20.029 -16.303,35.866 -27.482,48.908 l -4.658,5.59 c 0,3.261 -0.932,7.453 -4.658,7.918 -1.863,0.466 -5.59,-0.932 -8.384,1.863 -1.397,1.863 3.261,5.59 -0.466,2.795 -3.261,-2.329 -6.521,0 -10.248,0.932 -2.795,0.932 1.863,3.726 2.795,5.589 0.932,1.863 1.863,3.726 1.398,6.056 l -5.124,-5.59 c -6.055,3.261 -9.782,9.316 -14.906,13.974 -2.329,1.863 -1.397,5.124 -1.397,7.918 -3.261,0 -6.987,-0.932 -8.85,0.932 -1.397,1.863 -0.932,4.658 -0.932,7.453 -4.658,-0.466 -5.124,-7.453 -9.315,-6.056 -4.192,0.932 -8.85,1.397 -12.577,3.727 2.795,5.59 -4.658,2.329 -3.726,3.26 -6.987,-4.192 -13.042,-7.453 -20.495,-4.658 -15.837,-5.124 -35.4,-2.795 -49.84,-0.931 0,-2.329 0.466,-4.658 -0.466,-5.124 -0.932,2.329 -3.726,1.397 -3.26,1.397 -8.85,-6.055 -17.7,-9.782 -27.016,-14.905 -8.384,0.932 -16.303,-3.261 -18.632,-5.59 -6.521,-6.055 -13.974,-2.795 -20.029,-4.192 -13.042,-3.261 -17.7,-16.769 -19.098,-26.084 -0.932,-4.658 -4.658,-6.521 -6.055,-6.056 -6.055,-19.563 -15.371,-37.263 -22.824,-55.429 -1.863,-4.658 -1.397,-9.316 -1.397,-14.44 2.329,0.932 4.658,0.466 4.192,-2.794 C 11.645,189.491 6.056,177.846 0,166.667 3.261,150.83 3.726,132.198 11.179,118.224 17.7,105.648 29.811,99.126 38.195,88.413 c 2.795,-3.726 2.795,-8.85 5.59,-12.11 9.316,-9.316 18.632,-19.098 28.879,-27.482 4.658,-3.726 10.247,0 17.234,-1.397 2.329,-8.384 11.645,-15.837 20.495,-13.508 3.726,0.932 11.179,-8.85 13.508,-9.782 3.726,-1.397 1.863,3.726 1.863,6.987 8.85,-6.987 20.961,-10.713 32.14,-14.906"
           fill="#1c4b82"
           fill-rule="nonzero"
           stroke="none"
           stroke-width="1"
           stroke-linecap="butt"
           stroke-linejoin="miter"
           stroke-miterlimit="10"
           stroke-dasharray="none"
           stroke-dashoffset="0"
           font-family="none"
           font-weight="none"
           font-size="none"
           text-anchor="none"
           style="mix-blend-mode:normal;fill:#6002ee;fill-opacity:1"
           data-fill-palette-color="tertiary"
           id="path201" />
      </g>
    </svg>
  </g>
  <defs
     id="defs238" />
  <g
     aria-label="m"
     id="text51140"
     style="font-size:133.333px;line-height:1.25;font-family:'Segoe Print';-inkscape-font-specification:'Segoe Print';fill:#6002ee;fill-opacity:1">
    <path
       d="m 92.078404,151.09508 q -6.054672,0.13021 -25.911392,35.87231 -6.705712,12.04424 -7.81248,13.151 -1.106768,1.04167 -4.101552,1.88802 -2.92968,0.84635 -4.8828,0.84635 -4.361968,0 -4.361968,-16.99214 0,-9.57029 4.101552,-34.63533 1.692704,-10.15622 1.692704,-14.51819 0,-4.29687 3.841136,-4.29687 7.226544,0 7.226544,10.41664 0,4.8828 -2.408848,19.14058 -2.799472,16.276 -2.864576,19.79162 4.036448,-3.90624 11.848928,-17.12236 11.06768,-18.09891 16.276,-22.9166 5.273424,-4.8828 10.872369,-4.8828 4.23176,0 6.705709,5.66404 2.53906,5.66405 3.05989,27.01816 0.13021,5.33853 0.97656,7.94269 0.84635,2.60416 1.23698,2.60416 3.05988,0 13.28121,-20.83328 5.46874,-11.00257 10.61195,-16.73173 5.20832,-5.72915 11.52341,-5.72915 5.27343,0 7.68227,5.46874 2.40885,5.40363 3.45052,16.08069 0.97656,10.80726 2.99478,19.79161 2.08333,8.98435 7.55206,11.52341 3.71093,1.75781 3.71093,4.10155 0,2.27864 -3.12499,4.68749 -3.12499,2.40885 -5.72915,2.40885 -5.20832,0 -9.30987,-6.38019 -4.10156,-6.3802 -6.18488,-27.6041 -0.91146,-8.52862 -1.75781,-12.10934 -0.84635,-3.58072 -2.66927,-3.58072 -2.73436,0 -6.5104,5.20832 -3.71092,5.20832 -12.04424,21.1588 -6.5104,12.43486 -9.8958,16.60152 -3.32031,4.10155 -6.4453,4.10155 -2.79947,0 -5.013007,-2.21354 -2.213536,-2.27864 -2.799472,-5.40363 -0.585936,-3.1901 -1.236976,-15.55986 -0.976561,-20.57286 -3.580721,-23.95827 z"
       id="path77448"
       style="fill:#6002ee;fill-opacity:1" />
  </g>
  <g
     aria-label="x"
     id="text58074"
     style="font-size:40px;line-height:1.25;font-family:'Segoe Print';-inkscape-font-specification:'Segoe Print';fill:#6002ee;fill-opacity:1">
    <path
       d="m 189.72925,189.95976 q -4.45313,3.82813 -5.87891,7.71485 -0.54687,1.28906 -1.11328,1.93359 -2.32422,-0.13672 -2.32422,-2.16797 0,-2.98828 6.66016,-9.0625 l 0.9375,-0.8789 q -3.88672,-5.83985 -3.88672,-8.96485 0,-2.77344 2.34375,-2.77344 0.66406,0 0.95703,0.56641 0.3125,0.56641 0.48828,2.57813 0.25391,3.10546 2.67578,6.58203 5.41016,-4.64844 7.30469,-8.32032 0.64453,-1.17187 0.99609,-1.48437 0.35157,-0.3125 0.9375,-0.3125 0.70313,0 1.3086,0.54687 0.625,0.54688 0.625,1.38672 0,1.95313 -9.49219,10.70313 3.26172,4.17969 6.95313,6.26953 0.44921,0.25391 0.85937,0.52734 0.0781,0.17578 0.0781,0.54688 0,0.83984 -0.625,1.5039 -0.60547,0.66407 -1.46485,0.66407 -2.63672,0 -8.33984,-7.5586 z"
       id="path77445"
       style="fill:#6002ee;fill-opacity:1" />
  </g>
  <g
     aria-label="a"
     id="text61298"
     style="font-size:133.333px;line-height:1.25;font-family:'Segoe Print';-inkscape-font-specification:'Segoe Print';fill:#6002ee;fill-opacity:1">
    <path
       d="m 262.67655,174.76604 q -9.11456,12.23955 -18.03381,18.35933 -8.91925,6.11978 -16.3411,6.11978 -5.01301,0 -8.65884,-4.23176 -3.64582,-4.23176 -3.64582,-10.87237 0,-17.12235 15.29944,-36.84887 15.29944,-19.79161 30.40357,-19.79161 5.46873,0 8.138,6.24998 0.84635,2.08333 2.66926,2.08333 5.20832,0 5.20832,4.03645 0,2.01822 -0.65104,5.53384 -3.51561,19.20568 -3.51561,27.08326 0,15.75517 5.98956,18.88016 2.86458,1.5625 2.86458,3.84114 0,2.01822 -2.79947,4.03645 -2.79947,2.08332 -5.40363,2.08332 -5.01301,0 -8.26821,-6.90102 -3.2552,-6.90102 -3.2552,-19.66141 z m -3.97135,-36.65355 q -8.59372,0 -19.98692,16.14579 -11.3932,16.08069 -11.3932,26.69264 0,7.48696 4.9479,7.48696 7.16144,0 19.85672,-14.45309 12.69528,-14.45308 12.69528,-26.56243 0,-9.30987 -6.11978,-9.30987 z"
       id="path77442"
       style="fill:#6002ee;fill-opacity:1" />
  </g>
</svg>
